<svg xmlns="http://www.w3.org/2000/svg" viewBox="0 0 512 512" width="512" height="512">
  <rect width="512" height="512" rx="104" fill="#2563eb"/>
  <g fill="#ffffff">
    <rect x="196" y="116" width="22" height="56" rx="6"/>
    <rect x="245" y="116" width="22" height="56" rx="6"/>
    <rect x="294" y="116" width="22" height="56" rx="6"/>
    <rect x="196" y="340" width="22" height="56" rx="6"/>
    <rect x="245" y="340" width="22" height="56" rx="6"/>
    <rect x="294" y="340" width="22" height="56" rx="6"/>
    <rect x="116" y="196" width="56" height="22" rx="6"/>
    <rect x="116" y="245" width="56" height="22" rx="6"/>
    <rect x="116" y="294" width="56" height="22" rx="6"/>
    <rect x="340" y="196" width="56" height="22" rx="6"/>
    <rect x="340" y="245" width="56" height="22" rx="6"/>
    <rect x="340" y="294" width="56" height="22" rx="6"/>
  </g>
  <rect x="166" y="166" width="180" height="180" rx="22" fill="#ffffff"/>
  <circle cx="200" cy="200" r="13" fill="#2563eb"/>
</svg>
